<svg xmlns="http://www.w3.org/2000/svg" width="1180" height="1180" viewBox="0 0 1180 1180"><defs><linearGradient id="g" x1="0.12" y1="0" x2="0.95" y2="1"><stop offset="0" stop-color="#9B51E0"/><stop offset="0.5" stop-color="#5A78F0"/><stop offset="1" stop-color="#F2994A"/></linearGradient></defs><rect width="1180" height="1180" fill="#F3F4F6"/><text x="430" y="70" font-family="Helvetica,Arial" font-size="34" font-weight="600" fill="#333" text-anchor="middle">フルカラー</text><text x="720" y="70" font-family="Helvetica,Arial" font-size="34" font-weight="600" fill="#333" text-anchor="middle">1色シルエット</text><text x="1000" y="70" font-family="Helvetica,Arial" font-size="34" font-weight="600" fill="#333" text-anchor="middle">極小(実機約)</text><text x="40" y="260" font-family="Helvetica,Arial" font-size="30" font-weight="600" fill="#222">折れL (レターマーク)</text><svg x="280" y="110" width="300" height="300"><svg viewBox="0 0 1024 1024"><defs><clipPath id="sq"><path d="M 230,0 L 794,0 Q 1024,0 1024,230 L 1024,794 Q 1024,1024 794,1024 L 230,1024 Q 0,1024 0,794 L 0,230 Q 0,0 230,0 Z"/></clipPath></defs><g clip-path="url(#sq)"><rect width="1024" height="1024" fill="#FFFFFF"/><path d="M 398 250 L 398 642 Q 398 742 498 742 L 742 742" fill="none" stroke="url(#g)" stroke-width="132" stroke-linecap="round" stroke-linejoin="round"/></g><path d="M 230,0 L 794,0 Q 1024,0 1024,230 L 1024,794 Q 1024,1024 794,1024 L 230,1024 Q 0,1024 0,794 L 0,230 Q 0,0 230,0 Z" fill="none" stroke="#E2E5EA" stroke-width="3"/></svg></svg><svg x="595" y="110" width="300" height="300"><svg viewBox="0 0 1024 1024"><defs><clipPath id="sq"><path d="M 230,0 L 794,0 Q 1024,0 1024,230 L 1024,794 Q 1024,1024 794,1024 L 230,1024 Q 0,1024 0,794 L 0,230 Q 0,0 230,0 Z"/></clipPath></defs><g clip-path="url(#sq)"><rect width="1024" height="1024" fill="#FFFFFF"/><path d="M 398 250 L 398 642 Q 398 742 498 742 L 742 742" fill="none" stroke="#1A1A1A" stroke-width="132" stroke-linecap="round" stroke-linejoin="round"/></g><path d="M 230,0 L 794,0 Q 1024,0 1024,230 L 1024,794 Q 1024,1024 794,1024 L 230,1024 Q 0,1024 0,794 L 0,230 Q 0,0 230,0 Z" fill="none" stroke="#E2E5EA" stroke-width="3"/></svg></svg><svg x="954" y="214" width="92" height="92"><svg viewBox="0 0 1024 1024"><defs><clipPath id="sq"><path d="M 230,0 L 794,0 Q 1024,0 1024,230 L 1024,794 Q 1024,1024 794,1024 L 230,1024 Q 0,1024 0,794 L 0,230 Q 0,0 230,0 Z"/></clipPath></defs><g clip-path="url(#sq)"><rect width="1024" height="1024" fill="#FFFFFF"/><path d="M 398 250 L 398 642 Q 398 742 498 742 L 742 742" fill="none" stroke="url(#g)" stroke-width="132" stroke-linecap="round" stroke-linejoin="round"/></g><path d="M 230,0 L 794,0 Q 1024,0 1024,230 L 1024,794 Q 1024,1024 794,1024 L 230,1024 Q 0,1024 0,794 L 0,230 Q 0,0 230,0 Z" fill="none" stroke="#E2E5EA" stroke-width="3"/></svg></svg><text x="40" y="620" font-family="Helvetica,Arial" font-size="30" font-weight="600" fill="#222">王冠×時計 (融合)</text><svg x="280" y="470" width="300" height="300"><svg viewBox="0 0 1024 1024"><defs><clipPath id="sq"><path d="M 230,0 L 794,0 Q 1024,0 1024,230 L 1024,794 Q 1024,1024 794,1024 L 230,1024 Q 0,1024 0,794 L 0,230 Q 0,0 230,0 Z"/></clipPath></defs><g clip-path="url(#sq)"><rect width="1024" height="1024" fill="#FFFFFF"/><g transform="rotate(-66 512 512)"><circle cx="512" cy="512" r="250" fill="none" stroke="url(#g)" stroke-width="112" stroke-linecap="round" pathLength="100" stroke-dasharray="74 100"/></g><path d="M 362 360 L 362 210 L 443 297 L 512 186 L 581 297 L 662 210 L 662 360 Z" fill="url(#g)" stroke="url(#g)" stroke-width="26" stroke-linejoin="round" stroke-linecap="round"/></g><path d="M 230,0 L 794,0 Q 1024,0 1024,230 L 1024,794 Q 1024,1024 794,1024 L 230,1024 Q 0,1024 0,794 L 0,230 Q 0,0 230,0 Z" fill="none" stroke="#E2E5EA" stroke-width="3"/></svg></svg><svg x="595" y="470" width="300" height="300"><svg viewBox="0 0 1024 1024"><defs><clipPath id="sq"><path d="M 230,0 L 794,0 Q 1024,0 1024,230 L 1024,794 Q 1024,1024 794,1024 L 230,1024 Q 0,1024 0,794 L 0,230 Q 0,0 230,0 Z"/></clipPath></defs><g clip-path="url(#sq)"><rect width="1024" height="1024" fill="#FFFFFF"/><g transform="rotate(-66 512 512)"><circle cx="512" cy="512" r="250" fill="none" stroke="#1A1A1A" stroke-width="112" stroke-linecap="round" pathLength="100" stroke-dasharray="74 100"/></g><path d="M 362 360 L 362 210 L 443 297 L 512 186 L 581 297 L 662 210 L 662 360 Z" fill="#1A1A1A" stroke="#1A1A1A" stroke-width="26" stroke-linejoin="round" stroke-linecap="round"/></g><path d="M 230,0 L 794,0 Q 1024,0 1024,230 L 1024,794 Q 1024,1024 794,1024 L 230,1024 Q 0,1024 0,794 L 0,230 Q 0,0 230,0 Z" fill="none" stroke="#E2E5EA" stroke-width="3"/></svg></svg><svg x="954" y="574" width="92" height="92"><svg viewBox="0 0 1024 1024"><defs><clipPath id="sq"><path d="M 230,0 L 794,0 Q 1024,0 1024,230 L 1024,794 Q 1024,1024 794,1024 L 230,1024 Q 0,1024 0,794 L 0,230 Q 0,0 230,0 Z"/></clipPath></defs><g clip-path="url(#sq)"><rect width="1024" height="1024" fill="#FFFFFF"/><g transform="rotate(-66 512 512)"><circle cx="512" cy="512" r="250" fill="none" stroke="url(#g)" stroke-width="112" stroke-linecap="round" pathLength="100" stroke-dasharray="74 100"/></g><path d="M 362 360 L 362 210 L 443 297 L 512 186 L 581 297 L 662 210 L 662 360 Z" fill="url(#g)" stroke="url(#g)" stroke-width="26" stroke-linejoin="round" stroke-linecap="round"/></g><path d="M 230,0 L 794,0 Q 1024,0 1024,230 L 1024,794 Q 1024,1024 794,1024 L 230,1024 Q 0,1024 0,794 L 0,230 Q 0,0 230,0 Z" fill="none" stroke="#E2E5EA" stroke-width="3"/></svg></svg><text x="40" y="980" font-family="Helvetica,Arial" font-size="30" font-weight="600" fill="#222">王冠単体</text><svg x="280" y="830" width="300" height="300"><svg viewBox="0 0 1024 1024"><defs><clipPath id="sq"><path d="M 230,0 L 794,0 Q 1024,0 1024,230 L 1024,794 Q 1024,1024 794,1024 L 230,1024 Q 0,1024 0,794 L 0,230 Q 0,0 230,0 Z"/></clipPath></defs><g clip-path="url(#sq)"><rect width="1024" height="1024" fill="#FFFFFF"/><path d="M 302 640 L 302 400 L 415 539 L 512 362 L 609 539 L 722 400 L 722 640 Z" fill="url(#g)" stroke="url(#g)" stroke-width="34" stroke-linejoin="round" stroke-linecap="round"/><circle cx="302" cy="400" r="21" fill="url(#g)"/><circle cx="512" cy="362" r="21" fill="url(#g)"/><circle cx="722" cy="400" r="21" fill="url(#g)"/></g><path d="M 230,0 L 794,0 Q 1024,0 1024,230 L 1024,794 Q 1024,1024 794,1024 L 230,1024 Q 0,1024 0,794 L 0,230 Q 0,0 230,0 Z" fill="none" stroke="#E2E5EA" stroke-width="3"/></svg></svg><svg x="595" y="830" width="300" height="300"><svg viewBox="0 0 1024 1024"><defs><clipPath id="sq"><path d="M 230,0 L 794,0 Q 1024,0 1024,230 L 1024,794 Q 1024,1024 794,1024 L 230,1024 Q 0,1024 0,794 L 0,230 Q 0,0 230,0 Z"/></clipPath></defs><g clip-path="url(#sq)"><rect width="1024" height="1024" fill="#FFFFFF"/><path d="M 302 640 L 302 400 L 415 539 L 512 362 L 609 539 L 722 400 L 722 640 Z" fill="#1A1A1A" stroke="#1A1A1A" stroke-width="34" stroke-linejoin="round" stroke-linecap="round"/><circle cx="302" cy="400" r="21" fill="#1A1A1A"/><circle cx="512" cy="362" r="21" fill="#1A1A1A"/><circle cx="722" cy="400" r="21" fill="#1A1A1A"/></g><path d="M 230,0 L 794,0 Q 1024,0 1024,230 L 1024,794 Q 1024,1024 794,1024 L 230,1024 Q 0,1024 0,794 L 0,230 Q 0,0 230,0 Z" fill="none" stroke="#E2E5EA" stroke-width="3"/></svg></svg><svg x="954" y="934" width="92" height="92"><svg viewBox="0 0 1024 1024"><defs><clipPath id="sq"><path d="M 230,0 L 794,0 Q 1024,0 1024,230 L 1024,794 Q 1024,1024 794,1024 L 230,1024 Q 0,1024 0,794 L 0,230 Q 0,0 230,0 Z"/></clipPath></defs><g clip-path="url(#sq)"><rect width="1024" height="1024" fill="#FFFFFF"/><path d="M 302 640 L 302 400 L 415 539 L 512 362 L 609 539 L 722 400 L 722 640 Z" fill="url(#g)" stroke="url(#g)" stroke-width="34" stroke-linejoin="round" stroke-linecap="round"/><circle cx="302" cy="400" r="21" fill="url(#g)"/><circle cx="512" cy="362" r="21" fill="url(#g)"/><circle cx="722" cy="400" r="21" fill="url(#g)"/></g><path d="M 230,0 L 794,0 Q 1024,0 1024,230 L 1024,794 Q 1024,1024 794,1024 L 230,1024 Q 0,1024 0,794 L 0,230 Q 0,0 230,0 Z" fill="none" stroke="#E2E5EA" stroke-width="3"/></svg></svg></svg>